<svg xmlns="http://www.w3.org/2000/svg" fill="none" viewBox="0 0 112 76" aria-hidden="true" data-testid="indeed-design-system-illustrations-spot"><defs><linearGradient id="indeed-design-system-illustrations-spot-ihl-useId-passport-webapp-1-17" x1="56.258" x2="61.544" y1="17.605" y2="84.175" gradientUnits="userSpaceOnUse"><stop stop-color="#237EA3"></stop><stop offset="1" stop-color="#1D465C"></stop></linearGradient><linearGradient id="indeed-design-system-illustrations-spot-ihl-useId-passport-webapp-1-16" x1="56.258" x2="61.544" y1="17.605" y2="84.175" gradientUnits="userSpaceOnUse"><stop stop-color="#237EA3"></stop><stop offset="1" stop-color="#1D465C"></stop></linearGradient><linearGradient id="indeed-design-system-illustrations-spot-ihl-useId-passport-webapp-1-15" x1="56.26" x2="76.541" y1="72.083" y2="55.255" gradientUnits="userSpaceOnUse"><stop offset="0.062" stop-color="#75BDAA"></stop><stop offset="0.651" stop-color="#B9DAD0"></stop></linearGradient><linearGradient id="indeed-design-system-illustrations-spot-ihl-useId-passport-webapp-1-14" x1="80.612" x2="2.148" y1="69.006" y2="72.935" gradientUnits="userSpaceOnUse"><stop offset="0.152" stop-color="#F9F9F9"></stop><stop offset="1" stop-color="#C0C1C3"></stop></linearGradient><linearGradient id="indeed-design-system-illustrations-spot-ihl-useId-passport-webapp-1-13" x1="71.394" x2="124.068" y1="92.026" y2="32.4" gradientUnits="userSpaceOnUse"><stop offset="0.348" stop-color="#DF7838"></stop><stop offset="0.518" stop-color="#F39E78"></stop></linearGradient><linearGradient id="indeed-design-system-illustrations-spot-ihl-useId-passport-webapp-1-12" x1="39.297" x2="59.495" y1="66.796" y2="27.364" gradientUnits="userSpaceOnUse"><stop offset="0.264" stop-color="#DF7838"></stop><stop offset="0.624" stop-color="#F39E78"></stop></linearGradient><linearGradient id="indeed-design-system-illustrations-spot-ihl-useId-passport-webapp-1-11" x1="45.23" x2="68.334" y1="52.773" y2="22" gradientUnits="userSpaceOnUse"><stop offset="0.614" stop-color="#F39E78"></stop><stop offset="0.867" stop-color="#FFB286"></stop></linearGradient><linearGradient id="indeed-design-system-illustrations-spot-ihl-useId-passport-webapp-1-10" x1="96.432" x2="71.736" y1="63.493" y2="67.72" gradientUnits="userSpaceOnUse"><stop offset="0.152" stop-color="#F9F9F9"></stop><stop offset="1" stop-color="#C0C1C3"></stop></linearGradient><linearGradient id="indeed-design-system-illustrations-spot-ihl-useId-passport-webapp-1-9" x1="59.727" x2="51.16" y1="52.515" y2="41.317" gradientUnits="userSpaceOnUse"><stop offset="0.152" stop-color="#F9F9F9"></stop><stop offset="1" stop-color="#C0C1C3"></stop></linearGradient><linearGradient id="indeed-design-system-illustrations-spot-ihl-useId-passport-webapp-1-8" x1="46.698" x2="39.671" y1="51.054" y2="41.959" gradientUnits="userSpaceOnUse"><stop offset="0.152" stop-color="#F9F9F9"></stop><stop offset="1" stop-color="#C0C1C3"></stop></linearGradient><filter id="indeed-design-system-illustrations-spot-ihl-useId-passport-webapp-1-7" x="0%" y="0%"><feTurbulence baseFrequency="2.5" numOctaves="4" result="noise" seed="14"></feTurbulence><feComponentTransfer in="noise" result="opacity"><feFuncA slope="0.6" type="linear"></feFuncA></feComponentTransfer><feBlend in="opacity" in2="SourceGraphic" mode="overlay" result="blend"></feBlend></filter><filter id="indeed-design-system-illustrations-spot-ihl-useId-passport-webapp-1-6" width="82.25" height="56.186" x="15.633" y="20.016" color-interpolation-filters="sRGB" filterUnits="userSpaceOnUse"><feFlood flood-opacity="0" result="BackgroundImageFix"></feFlood><feColorMatrix in="SourceAlpha" result="hardAlpha" values="0 0 0 0 0 0 0 0 0 0 0 0 0 0 0 0 0 0 127 0"></feColorMatrix><feOffset dx="0.5" dy="0.5"></feOffset><feGaussianBlur stdDeviation="0.25"></feGaussianBlur><feColorMatrix values="0 0 0 0 0 0 0 0 0 0 0 0 0 0 0 0 0 0 0.3 0"></feColorMatrix><feBlend in2="BackgroundImageFix" result="effect1_dropShadow_4373_2633"></feBlend><feBlend in="SourceGraphic" in2="effect1_dropShadow_4373_2633" result="shape"></feBlend><feColorMatrix in="SourceAlpha" result="hardAlpha" values="0 0 0 0 0 0 0 0 0 0 0 0 0 0 0 0 0 0 127 0"></feColorMatrix><feOffset dx="1" dy="1"></feOffset><feGaussianBlur stdDeviation="0.5"></feGaussianBlur><feComposite in2="hardAlpha" k2="-1" k3="1" operator="arithmetic"></feComposite><feColorMatrix values="0 0 0 0 0 0 0 0 0 0 0 0 0 0 0 0 0 0 0.3 0"></feColorMatrix><feBlend in2="shape" result="effect2_innerShadow_4373_2633"></feBlend></filter><filter id="indeed-design-system-illustrations-spot-ihl-useId-passport-webapp-1-5" width="70.292" height="27.923" x="16.322" y="43.973" color-interpolation-filters="sRGB" filterUnits="userSpaceOnUse"><feFlood flood-opacity="0" result="BackgroundImageFix"></feFlood><feColorMatrix in="SourceAlpha" result="hardAlpha" values="0 0 0 0 0 0 0 0 0 0 0 0 0 0 0 0 0 0 127 0"></feColorMatrix><feOffset dx="1" dy="1"></feOffset><feGaussianBlur stdDeviation="0.5"></feGaussianBlur><feColorMatrix values="0 0 0 0 0 0 0 0 0 0 0 0 0 0 0 0 0 0 0.3 0"></feColorMatrix><feBlend in2="BackgroundImageFix" result="effect1_dropShadow_4373_2633"></feBlend><feBlend in="SourceGraphic" in2="effect1_dropShadow_4373_2633" result="shape"></feBlend></filter><filter id="indeed-design-system-illustrations-spot-ihl-useId-passport-webapp-1-4" width="21.974" height="40.244" x="75.772" y="31.649" color-interpolation-filters="sRGB" filterUnits="userSpaceOnUse"><feFlood flood-opacity="0" result="BackgroundImageFix"></feFlood><feColorMatrix in="SourceAlpha" result="hardAlpha" values="0 0 0 0 0 0 0 0 0 0 0 0 0 0 0 0 0 0 127 0"></feColorMatrix><feOffset dx="1" dy="1"></feOffset><feGaussianBlur stdDeviation="0.5"></feGaussianBlur><feColorMatrix values="0 0 0 0 0 0 0 0 0 0 0 0 0 0 0 0 0 0 0.3 0"></feColorMatrix><feBlend in2="BackgroundImageFix" result="effect1_dropShadow_4373_2633"></feBlend><feBlend in="SourceGraphic" in2="effect1_dropShadow_4373_2633" result="shape"></feBlend></filter><filter id="indeed-design-system-illustrations-spot-ihl-useId-passport-webapp-1-3" width="24.706" height="33.394" x="39.079" y="15.79" color-interpolation-filters="sRGB" filterUnits="userSpaceOnUse"><feFlood flood-opacity="0" result="BackgroundImageFix"></feFlood><feColorMatrix in="SourceAlpha" result="hardAlpha" values="0 0 0 0 0 0 0 0 0 0 0 0 0 0 0 0 0 0 127 0"></feColorMatrix><feOffset dx="1" dy="1"></feOffset><feGaussianBlur stdDeviation="0.5"></feGaussianBlur><feColorMatrix values="0 0 0 0 0 0 0 0 0 0 0 0 0 0 0 0 0 0 0.3 0"></feColorMatrix><feBlend in2="BackgroundImageFix" result="effect1_dropShadow_4373_2633"></feBlend><feBlend in="SourceGraphic" in2="effect1_dropShadow_4373_2633" result="shape"></feBlend></filter><filter id="indeed-design-system-illustrations-spot-ihl-useId-passport-webapp-1-2" width="96.36" height="5.821" x="8.578" y="69.927" color-interpolation-filters="sRGB" filterUnits="userSpaceOnUse"><feFlood flood-opacity="0" result="BackgroundImageFix"></feFlood><feColorMatrix in="SourceAlpha" result="hardAlpha" values="0 0 0 0 0 0 0 0 0 0 0 0 0 0 0 0 0 0 127 0"></feColorMatrix><feOffset dx="0.5" dy="0.5"></feOffset><feGaussianBlur stdDeviation="0.25"></feGaussianBlur><feColorMatrix values="0 0 0 0 0 0 0 0 0 0 0 0 0 0 0 0 0 0 0.3 0"></feColorMatrix><feBlend in2="BackgroundImageFix" result="effect1_dropShadow_4373_2633"></feBlend><feBlend in="SourceGraphic" in2="effect1_dropShadow_4373_2633" result="shape"></feBlend><feColorMatrix in="SourceAlpha" result="hardAlpha" values="0 0 0 0 0 0 0 0 0 0 0 0 0 0 0 0 0 0 127 0"></feColorMatrix><feOffset dx="0.5" dy="0.5"></feOffset><feGaussianBlur stdDeviation="0.25"></feGaussianBlur><feComposite in2="hardAlpha" k2="-1" k3="1" operator="arithmetic"></feComposite><feColorMatrix values="0 0 0 0 0 0 0 0 0 0 0 0 0 0 0 0 0 0 0.3 0"></feColorMatrix><feBlend in2="shape" result="effect2_innerShadow_4373_2633"></feBlend></filter><clipPath id="indeed-design-system-illustrations-spot-ihl-useId-passport-webapp-1-1"><path xmlns="http://www.w3.org/2000/svg" fill="#767676" d="m12.09 33.115 3.544-1.366v-7.618a4.115 4.115 0 0 1 4.115-4.115h21.209c1.955-3.792 5.755-6.31 10.044-6.179 2.111.065 4.266.678 6.08 1.934L95.614.918l16.305 73.823h-10.881a3.147 3.147 0 0 1-.19.006H11.67a2.99 2.99 0 0 1-.19-.006H.6l11.49-41.626zm3.661 42.087v-.453.453z"></path></clipPath><pattern id="indeed-design-system-illustrations-spot-ihl-useId-passport-webapp-1-0" width="50" height="40" x="0" y="0" patternTransform="scale(.3)" patternUnits="userSpaceOnUse"><path d="M0 0h50v40H0z" filter="url(#indeed-design-system-illustrations-spot-ihl-useId-passport-webapp-1-7)"></path></pattern></defs><g clip-path="url(#indeed-design-system-illustrations-spot-ihl-useId-passport-webapp-1-1)"><path fill="#D2CEF6" d="M12.089 33.116 95.613.919l16.304 73.823H.597L12.09 33.116z"></path><g filter="url(#indeed-design-system-illustrations-spot-ihl-useId-passport-webapp-1-6)"><path fill="url(#indeed-design-system-illustrations-spot-ihl-useId-passport-webapp-1-17)" d="M15.75 75.203v-.454.454z"></path><path fill="url(#indeed-design-system-illustrations-spot-ihl-useId-passport-webapp-1-16)" d="M15.658 69.928h3.503V24.132c0-.325.263-.588.588-.588h73.019c.325 0 .588.263.588.588v45.796h3.527V24.132a4.115 4.115 0 0 0-4.115-4.116h-73.02a4.115 4.115 0 0 0-4.115 4.116v45.1c0 .077.006.227.016.46l.01.236z"></path></g><path fill="#B9DAD0" d="M19.749 23.544h73.019c.324 0 .588.263.588.587v45.797H19.16V24.133c0-.325.263-.588.588-.588z"></path><path fill="url(#indeed-design-system-illustrations-spot-ihl-useId-passport-webapp-1-15)" fill-opacity="0.5" d="M19.749 23.544h73.019c.324 0 .588.263.588.587v45.797H19.16V24.133c0-.325.263-.588.588-.588z"></path><path fill="#7BC0AE" fill-opacity="0.6" d="M92.76 23.515H54.758a44.045 44.045 0 0 0 4.488 6.831 51.656 51.656 0 0 0 4.045 4.526 50.713 50.713 0 0 0 3.417 3.12c.237.206.479.402.723.6l.105.085.18.144c.06.048.12.096.182.143.081.07.163.135.249.2.248.192.497.386.75.579a64.384 64.384 0 0 0 1.186.872 57.402 57.402 0 0 0 6.892 4.245c.122.064.249.129.376.193.173.091.35.18.524.267l.145.072c.313.159.625.31.937.457.375.179.753.348 1.128.517l.166.075c.29.128.58.251.869.374a51.805 51.805 0 0 0 4.209 1.58c.132.048.265.09.398.131l.199.063c.778.246 1.552.468 2.321.668a46.163 46.163 0 0 0 5.101 1.029V24.103a.588.588 0 0 0-.588-.588zm.602 46.415v-5.403c-2.616-.182-5.435-.27-8.41-.362l-.385-.012-.46-.016h-.002c-1.143-.04-2.31-.08-3.493-.129l-.352-.015a36.185 36.185 0 0 0-.372-.016c-.736-.031-1.48-.07-2.228-.11l-.062-.004c-.86-.045-1.729-.1-2.607-.163l-.233-.018a112.974 112.974 0 0 1-7.007-.708l-.008-.002h-.005c-.57-.077-1.14-.158-1.716-.244-.116-.02-.234-.038-.352-.056a84.475 84.475 0 0 1-5.205-.985c-4.321-.964-8.701-2.34-13.041-4.322a41.846 41.846 0 0 1-1.22-.572l-.097-.048a58.555 58.555 0 0 1-4.715-2.566l-.157-.094a64.815 64.815 0 0 1-1.848-1.172 52.64 52.64 0 0 1-2.087-1.44l-.03-.022a12.807 12.807 0 0 1-.283-.205l-.12-.09a39.71 39.71 0 0 1-.53-.396l-.007-.004a.075.075 0 0 1-.015-.011l-.005-.005c-.34-.253-.679-.516-1.014-.782-.01-.01-.021-.017-.031-.025l-.032-.025-.136-.109-.122-.097a49.182 49.182 0 0 1-1.05-.858 58.337 58.337 0 0 1-2.466-2.18 74.813 74.813 0 0 1-1.71-1.648l-.15-.15c-.244-.248-.488-.497-.733-.75a28.41 28.41 0 0 0-1.425-1.399 23.48 23.48 0 0 0-.358-.321l-.199-.172a18.023 18.023 0 0 0-.439-.371l-.09-.075-.09-.074c-1.078-.878-2.128-1.57-3.141-2.087a12.47 12.47 0 0 0-1.041-.48l-.127-.048a18.26 18.26 0 0 0-.326-.123 9.755 9.755 0 0 0-2.307-.539h-.005a10 10 0 0 0-.151-.014V69.93h74.195z"></path><g filter="url(#indeed-design-system-illustrations-spot-ihl-useId-passport-webapp-1-5)"><path fill="url(#indeed-design-system-illustrations-spot-ihl-useId-passport-webapp-1-14)" d="m73.858 50.44-16.542-6.467-13.667 1.87-18.398 8.099a8.168 8.168 0 0 0-4.283 4.422l-4.646 11.532h68.292l-7.246-16.117a6.406 6.406 0 0 0-3.51-3.34z"></path></g><g filter="url(#indeed-design-system-illustrations-spot-ihl-useId-passport-webapp-1-4)"><path fill="url(#indeed-design-system-illustrations-spot-ihl-useId-passport-webapp-1-13)" d="M78.432 42.288a3.455 3.455 0 0 0-1.83-2.2.581.581 0 0 0-.828.578l.617 7.386 3.245 4.3 5.103 17.54h10.597l-5.492-13.218a3.06 3.06 0 0 1 .395-3.03 8.19 8.19 0 0 0 .719-1.096l2.923-5.468c.17-.375.272-.766.316-1.156l1.5-5.152a1.33 1.33 0 0 0-.133-1.022.728.728 0 0 0-1.221-.055l-.124.175.167-2.527c.103-.38.046-.785-.158-1.12l-.251-.413a3.293 3.293 0 0 1-.465-2.018l.066-.71a1.65 1.65 0 0 0-.026-.52c-.258-1.153-1.473-1.138-1.828-.379l-3.934 7.625 1.4-6.077a1.217 1.217 0 0 0-.152-.931c-.457-.702-1.373-.562-1.66.08l-4.021 8.977-1.561 2.77a1.797 1.797 0 0 1-2.486.86l-.878-3.2z"></path></g><path fill="#DF7838" d="M38.435 28.408c1.575-.24 3.201 2.914 3.201 2.914l.974 6.795c-.498 1.167-2.327.274-3.92-1.828-1.592-2.1-1.83-7.638-.255-7.88zm24.477.752c-1.556-.338-3.373 2.711-3.373 2.711l-1.39 6.723c.426 1.195 2.309.416 4.026-1.584 1.717-2 2.294-7.513.737-7.85z"></path><path fill="url(#indeed-design-system-illustrations-spot-ihl-useId-passport-webapp-1-12)" d="M42.837 41.078s1.663 3.992 1.757 7.163c.094 3.17 6.32 8.574 6.32 8.574l8.059-6.334s-.633-7.411 0-10.786c.633-3.376-16.136 1.383-16.136 1.383z"></path><path fill="#DF7838" d="M43.883 40.79c-.656.174-1.046.285-1.046.285 0 .001 1.535 3.686 1.738 6.787l.002.036c.007.111.013.222.016.33v.01c.002.08.009.16.017.24l.004.031c.01.076.022.152.037.227l.008.04a3.322 3.322 0 0 0 .142.483l.005.013a4.207 4.207 0 0 0 .21.464l.016.032a4.912 4.912 0 0 0 .14.242c.044.071.088.143.136.212a6.1 6.1 0 0 0 .335.448l.014.018c.056.069.114.136.172.202.007.006.012.014.018.02.06.067.122.135.184.2l.008.008c.197.207.407.405.621.594.003.002.005.005.008.006a9.491 9.491 0 0 0 .217.186l10.414-5.482a2.534 2.534 0 0 0 1.246-1.38l.145-.386.001-.373c-.009-1.7.056-3.4.28-4.594.538-2.859-11.433.126-15.088 1.1z"></path><path fill="#767676" d="M50.27 37.707c-6.111-.188-10.903-5.684-10.7-12.274.203-6.591 5.32-11.783 11.433-11.595 6.112.187 12.588 4.967 10.124 16.673"></path><g filter="url(#indeed-design-system-illustrations-spot-ihl-useId-passport-webapp-1-3)"><path fill="url(#indeed-design-system-illustrations-spot-ihl-useId-passport-webapp-1-11)" d="m61.768 31.925-.9-4.425-1.256-6.524a5.421 5.421 0 0 0-2.848-3.528c-1.263-.627-2.979-1.28-4.982-1.54l.146.006c-.334-.025-.811-.096-1.137-.098a24.886 24.886 0 0 0-.845-.026c-2.014.135-3.918.74-5.216 1.29a5.42 5.42 0 0 0-3.058 3.346l-1.356 6.445-1.17 4.361a8.607 8.607 0 0 0 1.042 5.284c.32.565.58 1.162.79 1.776l1.344 3.952c.2.589.617 1.08 1.166 1.373l3.81 2.965c.482.2.943.34 1.377.434.364.084.802.15 1.303.164.5.016.942-.022 1.31-.084a8.033 8.033 0 0 0 1.401-.349l3.984-2.725a2.45 2.45 0 0 0 1.247-1.298l1.584-3.863c.246-.601.543-1.181.898-1.724a8.59 8.59 0 0 0 1.366-5.212z"></path></g><path fill="#623721" d="M55.785 37.16s-.362 1.157-.96 1.687c-.6.53-5.864 1.638-5.864 1.638l-2.058-1.109-1.104-.97s-.214-.13-.797-.99l2.717.51 2.727-.003 4.291-.691 1.048-.071z"></path><path fill="#DF7838" d="M47.92 26.758s1.935 2.71 1.5 4.472c0 0-.664-1.14-2.673-2.189l-3.726.943 1.122-2.676 3.776-.55zm-1.221 7.824-1.867 1.51a1.62 1.62 0 0 0-.644 2.007c.228.539.534 1.191.917 1.845l.738-2.483 6.826.367.335-.457c.513-.7.564-1.639.13-2.39l-1.826 1.284a1.837 1.837 0 0 1-2.084.02L46.7 34.582z"></path><path fill="#fff" d="m52.413 37.71-3.046.74s-2.948-1.541-3.014-1.065c-.035.253.165.314.355.588l.655.412c.905.568 2.184 1.154 3.253 1.187l.378-.024c.65-.042 1.641-.452 2.21-.735.29-.143.524-.376.67-.665l.409-.634-1.87.197z"></path><path fill="#B4602B" d="M45.002 37.412s3.346.592 4.619 1.152c.979.431 1.386.094 1.386.094s3.977-.547 4.779-1.5l-.98.087a7.398 7.398 0 0 1-2.205-.134l-.948-.203a.576.576 0 0 0-.333.08l-.113.066c-.5.293-1.1.5-1.569.158l-.045-.109c-.122-.088-.229-.019-.378 0 0 0-1.526.087-2.29.15l-1.923.159z"></path><path fill="#623721" d="M48.56 29.772c-.122-.034-1.917-.773-2.575-1.044a.72.72 0 0 0-.497-.02c-.562.18-1.895.655-2.467 1.276l1.389-.267c.19-.036.382-.062.575-.078a.79.79 0 0 0 .755 1.012.788.788 0 0 0 .778-.914c.155.032.308.072.46.119l.22.067a1.74 1.74 0 0 0 1.362-.151zm3.69.078c.118-.025 1.836-.612 2.508-.842l.03-.01a.692.692 0 0 1 .48.01c.53.206 1.783.743 2.298 1.373l-1.32-.338a5.12 5.12 0 0 0-.518-.105.788.788 0 1 1-1.52 0 5.176 5.176 0 0 0-.44.086l-.214.052a1.676 1.676 0 0 1-1.304-.226zm-.291 6.55s1.385-1.869 1.792-.918l-1.792.917zm-3.189.042s-1.27-1.949-1.733-1.026l1.732 1.026z"></path><path fill="#DF7838" d="M50.234 41.814c3.99.04 5.292-3.902 5.292-3.902-.733.434-2.017 1.077-2.815 1.47a4.894 4.894 0 0 1-2.128.52h-.034a4.979 4.979 0 0 1-2.532-.707l-3.016-1.784s1.245 4.363 5.233 4.403zm-1.662.662 2.812-.155c-1.346 2.16-2.753.236-2.81.157l-.002-.002z"></path><path fill="#767676" d="m44.732 17.077 1.452.263c1.164.21 2.343.335 3.525.37l2.215.069a23.98 23.98 0 0 0 4.103-.227l.74-.106-4.06-2.526-2.694-.495-1.617-.05-3.664 2.702z"></path><path fill="url(#indeed-design-system-illustrations-spot-ihl-useId-passport-webapp-1-10)" d="m82.44 62.004 8.737-4.906 1.757 5.752s5.09 3.788 5.345 4.86c.256 1.072-.401 2.204-.401 2.204H81.533l.327-2.996 1.176-2.209-.596-2.705z"></path><path fill="url(#indeed-design-system-illustrations-spot-ihl-useId-passport-webapp-1-9)" d="M58.706 44.157s.03 5.38-6.458 7.752c0 0 2.22 5.098 3.127 7.425.235.6.61 1.135 1.08 1.574l4.23-12.47c-.002 0-1.195-4.116-1.98-4.281z"></path><path fill="url(#indeed-design-system-illustrations-spot-ihl-useId-passport-webapp-1-8)" d="M47.474 50.983 44.39 57.92l-3.333-5.261a2.701 2.701 0 0 1-.363-1.993l.75-3.607c.143-.69 1.739-2.494 1.739-2.494.413-.471.434-.47.825.019l.073.09a7.84 7.84 0 0 0 2.96 5.964l.433.343z"></path><path fill="#767676" d="M48.226 26.908c-.21.055-.85.102-1.577.155-.7.05-1.481.108-2.037.184a1.69 1.69 0 0 0-1.068.596l-1.441 1.735.875-2.577c.004-.079.112-.196.273-.323.58-.459 1.367-.71 2.155-.715l3.209-.022c.753-.103-.389.967-.389.967zm5.711 1.085a41.567 41.567 0 0 1 1.99-.2 1.88 1.88 0 0 1 1.336.446l1.603 1.364-1.346-2.365c-.018-.076-.147-.17-.328-.266-.655-.34-1.476-.439-2.25-.296l-3.157.585c-.758.042.565.877.565.877.215.014.856-.06 1.587-.145zm.016 8.405-2.303.512s-1.5.22-2.058.196c-.385-.016-1.774-.523-2.605-.837a1.262 1.262 0 0 0-1.197.167l-1.115.826c6.712 1.782 11.403-.102 11.403-.102-.572-.72-2.125-.762-2.125-.762z"></path><g filter="url(#indeed-design-system-illustrations-spot-ihl-useId-passport-webapp-1-2)"><path fill="#00677A" d="M8.578 69.927h95.36v1.73a3.09 3.09 0 0 1-3.091 3.09H11.669a3.09 3.09 0 0 1-3.09-3.09v-1.73z"></path></g></g><rect clip-path="url(#indeed-design-system-illustrations-spot-ihl-useId-passport-webapp-1-1)" width="100%" height="100%" fill="url(#indeed-design-system-illustrations-spot-ihl-useId-passport-webapp-1-0)" style="mix-blend-mode: overlay;"></rect></svg>